<?xml version="1.0" encoding="UTF-8" standalone="no"?>
<!-- Created with Inkscape (http://www.inkscape.org/) -->

<svg
   version="1.1"
   id="svg1"
   width="500"
   height="500"
   viewBox="0 0 500 500"
   sodipodi:docname="LogoNew.svg"
   inkscape:version="1.4-dev (1:1.4.0-dev+202403210151+2fe0648968)"
   xmlns:inkscape="http://www.inkscape.org/namespaces/inkscape"
   xmlns:sodipodi="http://sodipodi.sourceforge.net/DTD/sodipodi-0.dtd"
   xmlns="http://www.w3.org/2000/svg"
   xmlns:svg="http://www.w3.org/2000/svg">
  <defs
     id="defs1" />
  <sodipodi:namedview
     id="namedview1"
     pagecolor="#ffffff"
     bordercolor="#999999"
     borderopacity="1"
     inkscape:showpageshadow="2"
     inkscape:pageopacity="0"
     inkscape:pagecheckerboard="0"
     inkscape:deskcolor="#d1d1d1"
     inkscape:zoom="2.0166685"
     inkscape:cx="237.76838"
     inkscape:cy="221.40476"
     inkscape:window-width="1920"
     inkscape:window-height="960"
     inkscape:window-x="0"
     inkscape:window-y="0"
     inkscape:window-maximized="1"
     inkscape:current-layer="g1" />
  <g
     inkscape:groupmode="layer"
     inkscape:label="Image"
     id="g1">
    <path
       id="text1"
       style="font-size:94.1479px;line-height:1.3;font-family:Gurajada;-inkscape-font-specification:Gurajada;text-align:start;letter-spacing:8.89169px;word-spacing:0px;writing-mode:lr-tb;direction:ltr;text-anchor:start;fill:#ffffff;stroke-width:10.7343;paint-order:stroke fill markers;stroke:none;stroke-opacity:1"
       transform="scale(0.95440613,1.047772)"
       d="m 250.55871,128.5037 v 1.03456 c 12.23922,1.22392 14.40475,8.66288 14.87549,19.01915 h 1.12963 v -15.81667 c 0,0 -5.9313,-3.38971 -16.00512,-4.23704 z m -8.09568,0.18827 c -9.32064,1.31807 -12.89865,7.06111 -12.89865,7.06111 -6.96694,11.5802 3.48421,19.67657 10.16871,24.38396 l 16.1934,10.54507 c 1.58139,1.11001 2.89228,2.432 3.94143,3.87355 1.03394,-1.53471 1.98011,-3.11636 2.98778,-4.66578 0.34381,-0.51484 0.69347,-1.0266 1.04368,-1.53786 -1.62419,-1.78666 -3.6582,-3.53727 -6.18431,-5.20263 l -16.00513,-10.54321 c -13.08655,-8.47331 -7.62607,-20.05521 0.75309,-22.87965 z m -14.21655,44.53088 v 18.07779 c 0,0 5.46048,3.95452 16.66408,4.80185 v -1.03642 c -11.86263,-1.41222 -15.15783,-8.94496 -15.72272,-21.84322 z" />
    <text
       xml:space="preserve"
       style="font-style:normal;font-variant:normal;font-weight:300;font-stretch:normal;font-size:72px;line-height:1.3;font-family:'Butler Stencil';-inkscape-font-specification:'Butler Stencil Light';text-align:start;letter-spacing:6.8px;word-spacing:0px;writing-mode:lr-tb;direction:ltr;text-anchor:start;fill:#ffffff;stroke-width:8.20913;paint-order:stroke fill markers;stroke:none;stroke-opacity:1"
       x="500"
       y="162.69286"
       id="text3"><tspan
         sodipodi:role="line"
         id="tspan3"
         x="500"
         y="162.69286" /></text>
    <path
       id="text4"
       style="font-size:94.1479px;line-height:1.3;font-family:Gurajada;-inkscape-font-specification:Gurajada;text-align:start;letter-spacing:8.89169px;word-spacing:0px;writing-mode:lr-tb;direction:ltr;text-anchor:start;display:inline;fill:#ffffff;stroke-width:10.7343;paint-order:stroke fill markers;stroke:none;stroke-opacity:1"
       transform="scale(0.95440612,1.047772)"
       d="m 287.65025,178.34532 c -0.22586,0.3108 -0.44611,0.6244 -0.661,0.94136 h 0.21897 v 57.3352 c 0,6.11961 -2.2608,6.96791 -6.21501,6.96791 v 1.03456 h 19.58433 v -1.03456 c -3.95421,0 -6.215,-0.8483 -6.215,-6.96791 v -57.3352 h 7.43877 c 1.9771,0 15.53442,0.0941 15.72272,14.49877 h 1.03549 v -15.44013 z m -23.55236,0.53126 c -0.0272,0.002 -0.0548,0.004 -0.0819,0.006 -0.0236,0.001 -0.0494,0.0322 -0.0675,0.0634 0.0124,0.007 0.0253,0.0146 0.0368,0.0205 0.0292,-0.0215 0.0766,-0.0609 0.11256,-0.0895 z" />
    <text
       xml:space="preserve"
       style="font-style:normal;font-variant:normal;font-weight:300;font-stretch:normal;font-size:24.3097px;line-height:1.3;font-family:'Butler Stencil';-inkscape-font-specification:'Butler Stencil Light';text-align:start;letter-spacing:9.54px;word-spacing:0px;writing-mode:lr-tb;direction:ltr;text-anchor:start;fill:#ffffff;stroke-width:6.23631;paint-order:stroke fill markers;stroke:none;stroke-opacity:1"
       x="55.738091"
       y="321.27814"
       id="text5"><tspan
         sodipodi:role="line"
         id="tspan5"
         x="55.738091"
         y="321.27814"
         style="font-style:normal;font-variant:normal;font-weight:normal;font-stretch:normal;font-size:24.3097px;font-family:Garuda;-inkscape-font-specification:Garuda;letter-spacing:9.54px;stroke-width:6.23631;fill:#ffffff;stroke:none;stroke-opacity:1">SANTIAGO TABARES</tspan></text>
    <text
       xml:space="preserve"
       style="font-style:normal;font-variant:normal;font-weight:300;font-stretch:condensed;font-size:18.3322px;line-height:1.3;font-family:'FONTSPRING DEMO - Organetto Cnd Light';-inkscape-font-specification:'FONTSPRING DEMO - Organetto Cnd Light,  Light Condensed';text-align:start;letter-spacing:6.45px;word-spacing:0px;writing-mode:lr-tb;direction:ltr;text-anchor:start;fill:#ffffff;stroke-width:4.70286;paint-order:stroke fill markers;stroke:none;stroke-opacity:1"
       x="87.747864"
       y="350.30502"
       id="text6"><tspan
         sodipodi:role="line"
         id="tspan6"
         x="87.747864"
         y="350.30502"
         style="font-style:normal;font-variant:normal;font-weight:normal;font-stretch:normal;font-family:'PentaGram’s Ghost Whisperers';-inkscape-font-specification:'PentaGram’s Ghost Whisperers weight=330';letter-spacing:6.45px;stroke-width:4.70286;fill:#ffffff;stroke:none;stroke-opacity:1">Developer and Designer</tspan></text>
    <rect
       style="display:inline;fill:#ffffff;stroke-width:7.63853;paint-order:stroke fill markers;stroke:none;stroke-opacity:1"
       id="rect1"
       width="127.13404"
       height="1.8352886"
       x="-66.182434"
       y="317.23483"
       transform="matrix(0.56948519,-0.82200159,0.80267651,0.59641464,0,0)" />
  </g>
</svg>
